<?xml version="1.0" encoding="UTF-8"?>
<!DOCTYPE svg PUBLIC "-//W3C//DTD SVG 1.1//EN" "http://www.w3.org/Graphics/SVG/1.1/DTD/svg11.dtd">
<svg xmlns="http://www.w3.org/2000/svg" version="1.1" width="500px" height="500px" style="shape-rendering:geometricPrecision; text-rendering:geometricPrecision; image-rendering:optimizeQuality; fill-rule:evenodd; clip-rule:evenodd" xmlns:xlink="http://www.w3.org/1999/xlink">
<g><path style="opacity:1" fill="#000000" d="M -0.5,-0.5 C 166.167,-0.5 332.833,-0.5 499.5,-0.5C 499.5,166.167 499.5,332.833 499.5,499.5C 332.833,499.5 166.167,499.5 -0.5,499.5C -0.5,332.833 -0.5,166.167 -0.5,-0.5 Z"/></g>
<g><path style="opacity:1" fill="#696969" d="M 225.5,27.5 C 226.5,27.5 227.5,27.5 228.5,27.5C 228.666,33.5092 228.499,39.5092 228,45.5C 226.677,48.9972 224.177,50.6639 220.5,50.5C 213.854,49.9023 211.021,46.2356 212,39.5C 215.23,33.1073 219.563,32.1073 225,36.5C 225.498,33.5184 225.665,30.5184 225.5,27.5 Z"/></g>
<g><path style="opacity:1" fill="#6c6c6c" d="M 105.5,28.5 C 121.875,26.6816 126.875,33.1816 120.5,48C 115.742,50.1439 110.742,50.9773 105.5,50.5C 105.5,43.1667 105.5,35.8333 105.5,28.5 Z"/></g>
<g><path style="opacity:1" fill="#696969" d="M 159.5,27.5 C 162.861,28.2032 163.194,29.5365 160.5,31.5C 158.358,30.5629 158.024,29.2296 159.5,27.5 Z"/></g>
<g><path style="opacity:1" fill="#606060" d="M 198.5,27.5 C 200.346,27.2222 201.68,27.8888 202.5,29.5C 201.68,31.1112 200.346,31.7778 198.5,31.5C 198.5,30.1667 198.5,28.8333 198.5,27.5 Z"/></g>
<g><path style="opacity:1" fill="#696969" d="M 257.5,28.5 C 261.555,28.1758 265.555,28.5091 269.5,29.5C 266.215,30.3236 262.882,30.8236 259.5,31C 257.398,32.7328 257.065,34.7328 258.5,37C 262.287,37.1596 265.954,37.8263 269.5,39C 272.55,43.4153 271.883,47.0819 267.5,50C 263.179,50.499 258.846,50.6657 254.5,50.5C 254.5,49.5 254.5,48.5 254.5,47.5C 258.514,47.6655 262.514,47.4988 266.5,47C 269.167,45 269.167,43 266.5,41C 263.5,40.6667 260.5,40.3333 257.5,40C 253.567,36.1238 253.567,32.2905 257.5,28.5 Z"/></g>
<g><path style="opacity:1" fill="#6c6c6c" d="M 336.5,30.5 C 337.5,30.5 338.5,30.5 339.5,30.5C 339.5,31.8333 339.5,33.1667 339.5,34.5C 347.5,35.1667 347.5,35.8333 339.5,36.5C 339.5,40.1667 339.5,43.8333 339.5,47.5C 341.167,47.5 342.833,47.5 344.5,47.5C 344.5,48.5 344.5,49.5 344.5,50.5C 341.635,50.9452 339.135,50.2785 337,48.5C 336.501,44.5138 336.334,40.5138 336.5,36.5C 332.5,35.8333 332.5,35.1667 336.5,34.5C 336.5,33.1667 336.5,31.8333 336.5,30.5 Z"/></g>
<g><path style="opacity:1" fill="#4f4f4f" d="M 114.5,31.5 C 112.5,31.5 110.5,31.5 108.5,31.5C 108.5,36.8333 108.5,42.1667 108.5,47.5C 107.511,42.0247 107.178,36.358 107.5,30.5C 110.059,30.1984 112.393,30.5318 114.5,31.5 Z"/></g>
<g><path style="opacity:1" fill="#010101" d="M 114.5,31.5 C 117.148,31.7385 118.982,33.0718 120,35.5C 121.49,44.5108 117.657,48.5108 108.5,47.5C 108.5,42.1667 108.5,36.8333 108.5,31.5C 110.5,31.5 112.5,31.5 114.5,31.5 Z"/></g>
<g><path style="opacity:1" fill="#676767" d="M 138.5,33.5 C 145.549,33.216 148.883,36.5493 148.5,43.5C 144.486,43.3345 140.486,43.5012 136.5,44C 137.167,45 137.833,46 138.5,47C 141.146,47.4974 143.813,47.6641 146.5,47.5C 146.5,48.5 146.5,49.5 146.5,50.5C 137.064,51.7316 132.897,47.7316 134,38.5C 135.366,36.6383 136.866,34.9717 138.5,33.5 Z"/></g>
<g><path style="opacity:1" fill="#666666" d="M 159.5,34.5 C 160.5,34.5 161.5,34.5 162.5,34.5C 162.5,39.8333 162.5,45.1667 162.5,50.5C 161.5,50.5 160.5,50.5 159.5,50.5C 159.5,45.1667 159.5,39.8333 159.5,34.5 Z"/></g>
<g><path style="opacity:1" fill="#696969" d="M 172.5,34.5 C 173.5,34.5 174.5,34.5 175.5,34.5C 176.693,38.9106 178.193,43.2439 180,47.5C 182.201,43.7597 183.868,39.7597 185,35.5C 186.183,34.269 187.349,34.269 188.5,35.5C 186.569,40.1271 184.735,44.7938 183,49.5C 180.67,51.0317 178.67,50.6983 177,48.5C 174.993,43.9801 173.493,39.3134 172.5,34.5 Z"/></g>
<g><path style="opacity:1" fill="#707070" d="M 198.5,34.5 C 199.5,34.5 200.5,34.5 201.5,34.5C 201.5,39.8333 201.5,45.1667 201.5,50.5C 200.5,50.5 199.5,50.5 198.5,50.5C 198.5,45.1667 198.5,39.8333 198.5,34.5 Z"/></g>
<g><path style="opacity:1" fill="#6a6a6a" d="M 286.5,33.5 C 296.82,34.5328 300.487,40.1995 297.5,50.5C 295.876,50.6399 294.71,49.9733 294,48.5C 284.785,52.6227 280.452,49.6227 281,39.5C 282.36,36.9774 284.193,34.9774 286.5,33.5 Z"/></g>
<g><path style="opacity:1" fill="#606060" d="M 313.5,33.5 C 317.426,33.0466 320.592,34.3799 323,37.5C 324.367,41.6996 324.867,46.0329 324.5,50.5C 323.167,50.5 321.833,50.5 320.5,50.5C 320.666,46.4862 320.499,42.4862 320,38.5C 316.988,35.7501 314.321,36.0834 312,39.5C 311.501,43.1516 311.335,46.8183 311.5,50.5C 310.5,50.5 309.5,50.5 308.5,50.5C 308.334,46.4862 308.501,42.4862 309,38.5C 310.193,36.5029 311.693,34.8362 313.5,33.5 Z"/></g>
<g><path style="opacity:1" fill="#686868" d="M 360.5,33.5 C 367.985,33.4831 371.485,37.1498 371,44.5C 368.646,50.0949 364.479,51.9282 358.5,50C 352.725,43.7008 353.392,38.2008 360.5,33.5 Z"/></g>
<g><path style="opacity:1" fill="#686868" d="M 383.5,34.5 C 386.898,34.1796 390.232,34.513 393.5,35.5C 390.572,36.4841 387.572,36.8174 384.5,36.5C 384.5,37.8333 384.5,39.1667 384.5,40.5C 387.649,40.2114 390.649,40.7114 393.5,42C 395.275,45.3937 394.608,48.0604 391.5,50C 388.183,50.4983 384.85,50.665 381.5,50.5C 381.5,49.5 381.5,48.5 381.5,47.5C 384.833,47.5 388.167,47.5 391.5,47.5C 391.5,46.1667 391.5,44.8333 391.5,43.5C 382.776,45.1327 380.109,42.1327 383.5,34.5 Z"/></g>
<g><path style="opacity:1" fill="#0c0c0c" d="M 138.5,36.5 C 142.851,35.533 145.185,37.1996 145.5,41.5C 142.428,41.8174 139.428,41.4841 136.5,40.5C 137.18,39.1401 137.847,37.8068 138.5,36.5 Z"/></g>
<g><path style="opacity:1" fill="#060606" d="M 217.5,36.5 C 224.162,35.9973 226.662,38.9973 225,45.5C 222.374,49.0719 219.374,49.4052 216,46.5C 215.037,42.8513 215.537,39.518 217.5,36.5 Z"/></g>
<g><path style="opacity:1" fill="#070707" d="M 286.5,36.5 C 294.963,37.2711 296.629,41.1045 291.5,48C 285.242,48.7015 282.742,45.8682 284,39.5C 285.045,38.6266 285.878,37.6266 286.5,36.5 Z"/></g>
<g><path style="opacity:1" fill="#060606" d="M 360.5,36.5 C 366.279,36.1117 368.779,38.7783 368,44.5C 365.078,49.2327 361.745,49.5661 358,45.5C 356.93,41.8579 357.764,38.8579 360.5,36.5 Z"/></g>
<g><path style="opacity:1" fill="#727272" d="M 106.5,75.5 C 130.923,75.0196 155.257,75.5196 179.5,77C 227.333,132.833 275.167,188.667 323,244.5C 323.701,247.928 323.368,251.262 322,254.5C 276,309.167 230,363.833 184,418.5C 181.696,420.068 179.196,421.235 176.5,422C 153.5,422.667 130.5,422.667 107.5,422C 99.3761,417.293 97.5428,410.793 102,402.5C 103.214,400.951 104.714,399.785 106.5,399C 127.5,398.667 148.5,398.333 169.5,398C 211.125,348.04 253.125,298.373 295.5,249C 252.833,199.333 210.167,149.667 167.5,100C 146.769,99.9657 126.102,99.299 105.5,98C 97.2799,90.0637 97.6132,82.5637 106.5,75.5 Z"/></g>
<g><path style="opacity:1" fill="#727272" d="M 223.5,75.5 C 279.501,75.3333 335.501,75.5 391.5,76C 399.084,79.6889 401.251,85.5222 398,93.5C 396.127,95.7089 393.96,97.5422 391.5,99C 345.5,99.3333 299.5,99.6667 253.5,100C 293.786,148.074 333.952,196.241 374,244.5C 374.667,248.167 374.667,251.833 374,255.5C 328.021,310.313 281.854,364.98 235.5,419.5C 221.789,423.889 215.623,418.889 217,404.5C 260.5,353 304,301.5 347.5,250C 303.623,197.792 260.123,145.292 217,92.5C 214.657,84.825 216.824,79.1584 223.5,75.5 Z"/></g>
<g><path style="opacity:1" fill="#707070" d="M 134.5,444.5 C 135.5,444.5 136.5,444.5 137.5,444.5C 137.5,452.167 137.5,459.833 137.5,467.5C 136.5,467.5 135.5,467.5 134.5,467.5C 134.5,459.833 134.5,452.167 134.5,444.5 Z"/></g>
<g><path style="opacity:1" fill="#646464" d="M 142.5,444.5 C 143.5,444.5 144.5,444.5 145.5,444.5C 145.5,452.167 145.5,459.833 145.5,467.5C 144.5,467.5 143.5,467.5 142.5,467.5C 142.5,459.833 142.5,452.167 142.5,444.5 Z"/></g>
<g><path style="opacity:1" fill="#6e6e6e" d="M 224.5,444.5 C 225.5,444.5 226.5,444.5 227.5,444.5C 227.5,449.167 227.5,453.833 227.5,458.5C 229.288,458.785 230.955,458.452 232.5,457.5C 233.56,454.055 235.56,452.388 238.5,452.5C 237.752,454.332 236.752,455.999 235.5,457.5C 236.48,458.981 237.647,460.315 239,461.5C 239.495,463.473 239.662,465.473 239.5,467.5C 238.5,467.5 237.5,467.5 236.5,467.5C 236.55,461.658 233.55,459.325 227.5,460.5C 227.5,462.833 227.5,465.167 227.5,467.5C 226.5,467.5 225.5,467.5 224.5,467.5C 224.5,459.833 224.5,452.167 224.5,444.5 Z"/></g>
<g><path style="opacity:1" fill="#707070" d="M 329.5,444.5 C 330.5,444.5 331.5,444.5 332.5,444.5C 332.5,452.167 332.5,459.833 332.5,467.5C 331.5,467.5 330.5,467.5 329.5,467.5C 329.5,459.833 329.5,452.167 329.5,444.5 Z"/></g>
<g><path style="opacity:1" fill="#6d6d6d" d="M 102.5,445.5 C 105.247,445.187 107.914,445.52 110.5,446.5C 107.694,447.168 105.028,447.834 102.5,448.5C 101.883,448.611 101.383,448.944 101,449.5C 100.505,451.473 100.338,453.473 100.5,455.5C 103.833,455.5 107.167,455.5 110.5,455.5C 110.5,456.5 110.5,457.5 110.5,458.5C 107.167,458.5 103.833,458.5 100.5,458.5C 100.5,461.5 100.5,464.5 100.5,467.5C 99.5,467.5 98.5,467.5 97.5,467.5C 97.3338,461.158 97.5005,454.825 98,448.5C 98.9184,446.624 100.418,445.624 102.5,445.5 Z"/></g>
<g><path style="opacity:1" fill="#696969" d="M 160.5,445.5 C 164.555,445.176 168.555,445.509 172.5,446.5C 169.215,447.324 165.882,447.824 162.5,448C 160.398,449.733 160.065,451.733 161.5,454C 165.287,454.16 168.954,454.826 172.5,456C 175.55,460.415 174.883,464.082 170.5,467C 166.179,467.499 161.846,467.666 157.5,467.5C 157.5,466.5 157.5,465.5 157.5,464.5C 161.514,464.666 165.514,464.499 169.5,464C 172.167,462 172.167,460 169.5,458C 166.5,457.667 163.5,457.333 160.5,457C 156.555,453.169 156.555,449.336 160.5,445.5 Z"/></g>
<g><path style="opacity:1" fill="#6d6d6d" d="M 252.5,445.5 C 262.789,442.8 269.122,446.466 271.5,456.5C 271.175,462.323 268.175,465.823 262.5,467C 259.183,467.498 255.85,467.665 252.5,467.5C 252.5,460.167 252.5,452.833 252.5,445.5 Z"/></g>
<g><path style="opacity:1" fill="#2f2f2f" d="M 102.5,445.5 C 105.287,444.523 108.287,444.19 111.5,444.5C 111.5,445.833 111.5,447.167 111.5,448.5C 108.5,448.5 105.5,448.5 102.5,448.5C 105.028,447.834 107.694,447.168 110.5,446.5C 107.914,445.52 105.247,445.187 102.5,445.5 Z"/></g>
<g><path style="opacity:1" fill="#666666" d="M 178.5,447.5 C 179.5,447.5 180.5,447.5 181.5,447.5C 181.5,448.833 181.5,450.167 181.5,451.5C 189.196,451.771 189.363,452.771 182,454.5C 181.216,457.76 181.383,460.927 182.5,464C 184.134,464.494 185.801,464.66 187.5,464.5C 187.5,465.5 187.5,466.5 187.5,467.5C 183.987,468.124 181.153,467.124 179,464.5C 179.003,460.258 178.17,456.258 176.5,452.5C 178.005,451.158 178.672,449.492 178.5,447.5 Z"/></g>
<g><path style="opacity:1" fill="#060606" d="M 255.5,447.5 C 267.376,447.503 270.709,452.67 265.5,463C 262.312,464.316 258.978,464.816 255.5,464.5C 255.5,458.833 255.5,453.167 255.5,447.5 Z"/></g>
<g><path style="opacity:1" fill="#6a6a6a" d="M 114.5,451.5 C 115.5,451.5 116.5,451.5 117.5,451.5C 117.335,455.182 117.501,458.848 118,462.5C 120.321,465.917 122.988,466.25 126,463.5C 126.499,459.514 126.666,455.514 126.5,451.5C 127.5,451.5 128.5,451.5 129.5,451.5C 129.666,455.846 129.499,460.179 129,464.5C 124.998,468.122 120.665,468.456 116,465.5C 114.621,460.964 114.121,456.297 114.5,451.5 Z"/></g>
<g><path style="opacity:1" fill="#636363" d="M 196.5,450.5 C 200.426,450.047 203.592,451.38 206,454.5C 207.29,458.73 207.79,463.064 207.5,467.5C 205.549,467.773 204.049,467.107 203,465.5C 193.176,469.563 189.176,466.23 191,455.5C 192.352,453.251 194.185,451.584 196.5,450.5 Z"/></g>
<g><path style="opacity:1" fill="#676767" d="M 215.5,451.5 C 217.604,451.201 219.604,451.534 221.5,452.5C 215.805,453.016 213.305,456.016 214,461.5C 215.848,464.041 218.348,465.041 221.5,464.5C 221.5,465.5 221.5,466.5 221.5,467.5C 214.065,467.565 210.565,463.898 211,456.5C 212.366,454.638 213.866,452.972 215.5,451.5 Z"/></g>
<g><path style="opacity:1" fill="#656565" d="M 279.5,450.5 C 286.12,450.453 289.453,453.786 289.5,460.5C 285.445,460.176 281.445,460.509 277.5,461.5C 277.977,462.478 278.643,463.311 279.5,464C 282.146,464.497 284.813,464.664 287.5,464.5C 287.5,465.5 287.5,466.5 287.5,467.5C 278.494,468.975 273.994,465.308 274,456.5C 275.36,453.977 277.193,451.977 279.5,450.5 Z"/></g>
<g><path style="opacity:1" fill="#696969" d="M 291.5,452.5 C 292.542,451.209 293.708,451.209 295,452.5C 296.48,456.615 298.147,460.615 300,464.5C 302.202,460.394 303.702,456.06 304.5,451.5C 305.873,451.343 307.207,451.51 308.5,452C 306.407,456.776 304.407,461.609 302.5,466.5C 300.647,467.76 298.814,467.76 297,466.5C 295.389,461.633 293.556,456.966 291.5,452.5 Z"/></g>
<g><path style="opacity:1" fill="#676767" d="M 315.5,450.5 C 322.549,450.216 325.883,453.549 325.5,460.5C 321.486,460.334 317.486,460.501 313.5,461C 314.167,462 314.833,463 315.5,464C 318.146,464.497 320.813,464.664 323.5,464.5C 323.5,465.5 323.5,466.5 323.5,467.5C 313.842,469.007 309.675,465.007 311,455.5C 312.366,453.638 313.866,451.972 315.5,450.5 Z"/></g>
<g><path style="opacity:1" fill="#686868" d="M 342.5,450.5 C 349.985,450.483 353.485,454.15 353,461.5C 350.646,467.095 346.479,468.928 340.5,467C 334.725,460.701 335.392,455.201 342.5,450.5 Z"/></g>
<g><path style="opacity:1" fill="#656565" d="M 361.5,466.5 C 361.217,465.711 360.717,465.044 360,464.5C 359.502,467.817 359.335,471.15 359.5,474.5C 358.5,474.5 357.5,474.5 356.5,474.5C 356.08,467.716 356.58,461.05 358,454.5C 363.353,449.035 368.353,449.368 373,455.5C 374.447,464.889 370.614,468.556 361.5,466.5 Z"/></g>
<g><path style="opacity:1" fill="#676767" d="M 381.5,450.5 C 388.549,450.216 391.883,453.549 391.5,460.5C 387.486,460.334 383.486,460.501 379.5,461C 380.167,462 380.833,463 381.5,464C 384.146,464.497 386.813,464.664 389.5,464.5C 389.5,465.5 389.5,466.5 389.5,467.5C 379.842,469.007 375.675,465.007 377,455.5C 378.366,453.638 379.866,451.972 381.5,450.5 Z"/></g>
<g><path style="opacity:1" fill="#6a6a6a" d="M 397.5,451.5 C 404.234,451.487 404.734,452.487 399,454.5C 398.501,458.821 398.334,463.154 398.5,467.5C 397.5,467.5 396.5,467.5 395.5,467.5C 395.334,462.821 395.501,458.155 396,453.5C 396.717,452.956 397.217,452.289 397.5,451.5 Z"/></g>
<g><path style="opacity:1" fill="#040404" d="M 196.5,453.5 C 203.03,453.243 205.197,456.243 203,462.5C 200.048,466.482 197.048,466.482 194,462.5C 192.93,458.858 193.764,455.858 196.5,453.5 Z"/></g>
<g><path style="opacity:1" fill="#0c0c0c" d="M 279.5,453.5 C 283.145,452.68 285.478,454.013 286.5,457.5C 283.572,458.484 280.572,458.817 277.5,458.5C 277.392,456.486 278.058,454.82 279.5,453.5 Z"/></g>
<g><path style="opacity:1" fill="#0c0c0c" d="M 315.5,453.5 C 319.851,452.533 322.185,454.2 322.5,458.5C 319.428,458.817 316.428,458.484 313.5,457.5C 314.18,456.14 314.847,454.807 315.5,453.5 Z"/></g>
<g><path style="opacity:1" fill="#070707" d="M 342.5,453.5 C 348.279,453.112 350.779,455.778 350,461.5C 347.078,466.233 343.745,466.566 340,462.5C 338.93,458.858 339.764,455.858 342.5,453.5 Z"/></g>
<g><path style="opacity:1" fill="#060606" d="M 362.5,453.5 C 369.162,452.997 371.662,455.997 370,462.5C 367.374,466.072 364.374,466.405 361,463.5C 360.037,459.851 360.537,456.518 362.5,453.5 Z"/></g>
<g><path style="opacity:1" fill="#0c0c0c" d="M 381.5,453.5 C 385.851,452.533 388.185,454.2 388.5,458.5C 385.428,458.817 382.428,458.484 379.5,457.5C 380.18,456.14 380.847,454.807 381.5,453.5 Z"/></g>
<g><path style="opacity:1" fill="#333333" d="M 361.5,466.5 C 360.833,469.167 360.167,471.833 359.5,474.5C 359.335,471.15 359.502,467.817 360,464.5C 360.717,465.044 361.217,465.711 361.5,466.5 Z"/></g>
</svg>
